<svg width="561" height="267" viewBox="0 0 561 267" fill="none" xmlns="http://www.w3.org/2000/svg">
<g clip-path="url(#clip0_1119_74)">
<path d="M120.4 266.6L110 239C109.4 237.3 108.8 235.6 108.1 233.9C107.4 232.2 106.6 230.6 105.6 229.1C104.8 227.8 103.9 226.8 102.8 226.2C101.7 225.5 100.4 225.2 98.8001 225.2H93.5001V266.6H70.1001V160.6H108.4C114.6 160.6 119.9 161.3 124.4 162.8C128.9 164.3 132.5 166.3 135.3 168.8C138.1 171.3 140.2 174.3 141.5 177.6C142.8 180.9 143.5 184.4 143.5 188.2C143.5 191.3 143.1 194.4 142.2 197.4C141.3 200.4 140.1 203.2 138.3 205.8C136.6 208.3 134.4 210.6 131.9 212.6C129.3 214.6 126.3 216.2 122.9 217.4C124.8 218.3 126.4 219.5 127.8 221C129.2 222.5 130.5 224.1 131.6 225.7C132.7 227.3 133.6 229 134.3 230.7C135 232.4 135.6 233.8 136.1 235L148.9 266.6H120.4ZM116.1 187C115.5 185.2 114.6 183.6 113.4 182.1C112.2 180.6 110.7 179.5 108.8 178.5C106.9 177.6 104.8 177.1 102.4 177.1H93.6001V208.4H102.7C105.1 208.4 107.2 207.9 109 206.9C110.8 205.9 112.3 204.6 113.4 203.1C114.5 201.6 115.4 199.8 116 197.9C116.6 196 116.9 194.1 116.9 192.4C117 190.6 116.7 188.8 116.1 187Z" fill="white"/>
<path d="M259.4 213.4C259.4 215.7 259.2 217.8 258.9 219.9C258.6 222 257.9 223.8 256.9 225.3C255.9 226.8 254.5 228.1 252.6 229C250.7 230 248.3 230.4 245.2 230.4C242.5 230.4 240.2 230 238.5 229.1C236.7 228.2 235.4 227 234.4 225.6C233.4 224.1 232.7 222.5 232.3 220.6C231.9 218.7 231.7 216.8 231.7 214.8V171.8H215.7V214.7C215.7 223.6 218 230.2 222.5 234.7C227 239.1 234.2 241.3 244 241.3C249.3 241.3 253.8 240.6 257.4 239.3C261 238 264 236.1 266.3 233.6C268.6 231.1 270.2 228.1 271.3 224.6C272.3 221.1 272.8 217.1 272.8 212.6V171.8H259.3V213.4H259.4Z" fill="white"/>
<path d="M77.6 135.4C77.6 129.3 76.3 124.3 73.8 120.3C71.3 116.4 68.1 113.1 64.3 110.4C60.5 107.7 56.4 105.5 52 103.6C47.6 101.8 43.5 99.8999 39.7 97.9999C35.9 96.0999 32.7 93.9999 30.2 91.5999C27.7 89.1999 26.4 86.1999 26.4 82.3999C26.4 79.9999 26.9 77.9999 28 76.2999C29 74.5999 30.4 73.1999 32 71.9999C33.6 70.8999 35.5 69.9999 37.5 69.4999C39.5 68.9999 41.5 68.6999 43.5 68.6999C47.1 68.6999 51 69.2999 55 70.5999C59.1 71.8999 62.7 73.5999 65.9 75.6999L72 64.4999C61.8 50.4999 44 51.4999 44 51.4999C43.1 51.4999 42.1 51.3999 41.3 51.3999C35.6 51.3999 30.3 52.1999 25.3 53.8999C20.3 55.5999 16 57.9999 12.2 61.1999C8.5 64.3999 5.5 68.2999 3.3 72.8999C1.1 77.4999 0 82.7999 0 88.6999C0 95.0999 1.3 100.5 3.8 104.9C6.4 109.2 9.5 112.9 13.3 115.9C17.1 118.9 21.2 121.3 25.6 123.2C30.1 125.1 34.2 127 37.9 128.8C41.7 130.6 44.8 132.6 47.4 134.7C50 136.8 51.2 139.4 51.2 142.5C51.2 145.1 50.6 147.1 49.5 148.7C48.4 150.3 46.9 151.5 45.2 152.3C43.5 153.2 41.6 153.7 39.5 154.1C37.4 154.4 35.5 154.6 33.6 154.6C28.8 154.6 24.1 153.7 19.6 152C15.1 150.3 11.2 148.2 7.9 145.7L1.2 158C14.4 169.5 26.1 171.2 26.1 171.2L26 171.1C28.8 171.7 31.9 172 35.3 172C41 172 46.4 171.2 51.5 169.7C56.6 168.1 61.1 165.8 65 162.8C68.9 159.7 72 155.9 74.2 151.4C76.5 146.7 77.6 141.4 77.6 135.4Z" fill="white"/>
<path d="M101.3 76.2H87.3V148.1H101.3V76.2Z" fill="white"/>
<path d="M152.8 136.8H128.7V75.8H113V148.1H152.8V136.8Z" fill="white"/>
<path d="M177.6 123.6L181.4 118.6L199.9 148.1H221.7L193.9 105.5L218.1 75.8H203.4L177.6 107.8V75.8H161.3V148.1H177.6V123.6Z" fill="white"/>
<path d="M203 181.6C200.4 178.6 197.1 176.2 193.1 174.4C189.2 172.7 184.6 171.8 179.5 171.8C174 171.8 169.2 172.7 165.1 174.6C161 176.5 157.5 179.1 154.7 182.3C151.9 185.6 149.9 189.4 148.5 193.7C147.1 198.1 146.5 202.7 146.5 207.7C146.5 212.3 147.2 216.7 148.5 220.8C149.9 224.9 151.9 228.5 154.5 231.5C157.1 234.5 160.4 236.9 164.4 238.7C168.3 240.4 172.9 241.3 178 241.3C183.5 241.3 188.4 240.4 192.5 238.5C196.6 236.6 200 234 202.8 230.8C205.6 227.5 207.6 223.7 209 219.4C210.4 215 211 210.4 211 205.4C211 200.8 210.3 196.4 209 192.3C207.6 188.2 205.6 184.7 203 181.6ZM193.4 212.4C193.2 214.5 192.8 216.5 192.2 218.5C191.6 220.5 190.8 222.3 189.8 224.1C188.8 225.8 187.5 227.3 185.8 228.4C184.9 229.1 183.9 229.6 182.8 230C181.7 230.4 180.5 230.5 179.4 230.5C177.3 230.5 175.4 230 173.8 229.1C172.2 228.2 170.8 227 169.6 225.6C168.4 224.2 167.4 222.6 166.6 220.8C165.8 219.1 165.2 217.3 164.8 215.6C164.5 214.1 164.2 212.6 164.1 211.1C163.9 209.6 163.9 208.1 163.9 206.5C163.9 204.7 164 202.8 164.2 200.7C164.4 198.6 164.8 196.6 165.4 194.6C166 192.6 166.8 190.8 167.8 189C168.8 187.3 170.2 185.8 171.8 184.7C172.7 184 173.7 183.5 174.8 183.1C175.9 182.7 177.1 182.6 178.2 182.6C180.3 182.6 182.2 183.1 183.8 184C185.4 184.9 186.8 186.1 188 187.5C189.2 188.9 190.2 190.5 191 192.3C191.8 194 192.4 195.8 192.8 197.5C193.1 199 193.4 200.5 193.5 202C193.7 203.5 193.7 205 193.7 206.6C193.7 208.4 193.6 210.3 193.4 212.4Z" fill="white"/>
<path d="M278.8 182.8H295.6V241.5H310.9V182.8H328.8V171.9H278.8V182.8Z" fill="white"/>
<path d="M351.6 230.5V211.4H373.5V200.5H351.6V183H374.5V172.1H335.5V241.4H376.5V230.5H351.6Z" fill="white"/>
<path d="M182.9 52.6L265.2 3C255.8 3.5 246.9 4 236.9 5C219.1 6.5 204.7 8 186.8 10L152.1 55.6C163 54.1 173.5 53.1 182.9 52.6Z" fill="#C7017F"/>
<path d="M140.7 56.9999L162.5 13.3999C143.7 16.3999 131.8 18.3999 113.9 21.7999L124.3 59.4999C129.8 58.4999 135.8 57.9999 140.7 56.9999Z" fill="#008BD2"/>
<path d="M115.5 61L94.5999 25.8C83.1999 28.3 70.7999 31.3001 59.8999 34.7001C76.7999 45.6 85.6999 51.6 101 63.5C106 63 111 62 115.5 61Z" fill="#A2C617"/>
<path d="M299.9 0.999881L200.8 52.5999C220.6 52.0999 236.5 53.0999 248.4 55.5999L338 28.2999L351.9 23.2999L415.8 3.99988C372.7 -1.00012 329.1 -0.500119 299.9 0.999881Z" fill="#E50046"/>
<path d="M544.7 57.9999C519.9 24.7999 467.4 11.8999 455 9.3999L399 23.7999L378.2 29.2999H378.7L371.3 31.2999L355.9 35.7999L358.4 36.7999C357.4 36.2999 356.9 36.2999 355.9 35.7999L264.7 58.9999C274.1 63.4999 276.6 69.8999 273.1 77.2999L400.5 68.3999L434.7 65.8999H439.2L448.1 64.8999L544.7 57.9999Z" fill="#EF7D00"/>
<path d="M555.1 76.8999L438.1 80.3999L400.9 81.3999L265.6 85.3999C257.7 93.2999 243.8 102.3 223.5 111.2L318.7 135.5L381.7 151.9L434.2 165.3L520 187.1C560.6 144.8 567 102.6 555.1 76.8999Z" fill="#FFCC00"/>
</g>
<defs>
<clipPath id="clip0_1119_74">
<rect width="560.5" height="266.6" fill="white"/>
</clipPath>
</defs>
</svg>
